<svg xmlns="http://www.w3.org/2000/svg" xmlns:xlink="http://www.w3.org/1999/xlink" width="1080" zoomAndPan="magnify" viewBox="0 0 810 809.999993" height="1080" preserveAspectRatio="xMidYMid meet" version="1.0"><defs><g/><clipPath id="bd0271cd0d"><path d="M 37.398438 37.398438 L 772.601562 37.398438 L 772.601562 772.601562 L 37.398438 772.601562 Z M 37.398438 37.398438 " clip-rule="nonzero"/></clipPath><clipPath id="935b451ec7"><path d="M 405 37.398438 C 201.980469 37.398438 37.398438 201.980469 37.398438 405 C 37.398438 608.019531 201.980469 772.601562 405 772.601562 C 608.019531 772.601562 772.601562 608.019531 772.601562 405 C 772.601562 201.980469 608.019531 37.398438 405 37.398438 Z M 405 37.398438 " clip-rule="nonzero"/></clipPath><clipPath id="2294909886"><path d="M 55.429688 55.429688 L 754.570312 55.429688 L 754.570312 754.570312 L 55.429688 754.570312 Z M 55.429688 55.429688 " clip-rule="nonzero"/></clipPath><clipPath id="65bc95fdd2"><path d="M 405 55.429688 C 211.9375 55.429688 55.429688 211.9375 55.429688 405 C 55.429688 598.0625 211.9375 754.570312 405 754.570312 C 598.0625 754.570312 754.570312 598.0625 754.570312 405 C 754.570312 211.9375 598.0625 55.429688 405 55.429688 Z M 405 55.429688 " clip-rule="nonzero"/></clipPath><clipPath id="cf4d50a167"><path d="M 69.214844 69.214844 L 740.785156 69.214844 L 740.785156 740.785156 L 69.214844 740.785156 Z M 69.214844 69.214844 " clip-rule="nonzero"/></clipPath><clipPath id="19918bfadb"><path d="M 405 69.214844 C 219.550781 69.214844 69.214844 219.550781 69.214844 405 C 69.214844 590.449219 219.550781 740.785156 405 740.785156 C 590.449219 740.785156 740.785156 590.449219 740.785156 405 C 740.785156 219.550781 590.449219 69.214844 405 69.214844 Z M 405 69.214844 " clip-rule="nonzero"/></clipPath></defs><g clip-path="url(#bd0271cd0d)"><g clip-path="url(#935b451ec7)"><path fill="#d6d6d6" d="M 37.398438 37.398438 L 772.601562 37.398438 L 772.601562 772.601562 L 37.398438 772.601562 Z M 37.398438 37.398438 " fill-opacity="1" fill-rule="nonzero"/></g></g><g clip-path="url(#2294909886)"><g clip-path="url(#65bc95fdd2)"><path fill="#161619" d="M 55.429688 55.429688 L 754.570312 55.429688 L 754.570312 754.570312 L 55.429688 754.570312 Z M 55.429688 55.429688 " fill-opacity="1" fill-rule="nonzero"/></g></g><g clip-path="url(#cf4d50a167)"><g clip-path="url(#19918bfadb)"><path fill="#ffffff" d="M 69.214844 69.214844 L 740.785156 69.214844 L 740.785156 740.785156 L 69.214844 740.785156 Z M 69.214844 69.214844 " fill-opacity="1" fill-rule="nonzero"/></g></g><g fill="#161619" fill-opacity="1"><g transform="translate(248.604101, 565.481003)"><g><path d="M 214.257812 -333.246094 L 153.101562 -188.464844 L 91.527344 -333.246094 L 29.121094 -333.246094 L 121.898438 -115.242188 L 121.898438 0 L 183.886719 0 L 183.886719 -115.242188 L 276.246094 -333.246094 Z M 214.257812 -333.246094 "/></g></g></g></svg>